<?xml version="1.0" encoding="utf-8"?>
<!-- Generator: Adobe Illustrator 24.1.1, SVG Export Plug-In . SVG Version: 6.00 Build 0)  -->
<svg version="1.1" id="Capa_1" xmlns="http://www.w3.org/2000/svg" xmlns:xlink="http://www.w3.org/1999/xlink" x="0px" y="0px"
	 viewBox="0 0 204 204" style="enable-background:new 0 0 204 204;" xml:space="preserve">
<style type="text/css">
	.st0{fill:url(#SVGID_1_);}
	.st1{fill:#FCFCFC;}
</style>
<linearGradient id="SVGID_1_" gradientUnits="userSpaceOnUse" x1="-12.4728" y1="102.3102" x2="228.086" y2="101.4267" gradientTransform="matrix(1 0 0 -1 0 203.8898)">
	<stop  offset="0" style="stop-color:#AA367C"/>
	<stop  offset="1" style="stop-color:#4A2FBD"/>
</linearGradient>
<path class="st0" d="M187.6,69.9c5.5-2,11.6,0.7,13.1,6.3c5.5,21.2,4.1,43.8-4.3,64.3c-9.7,23.8-28,43-51.3,53.9
	c-23.3,10.9-49.7,12.6-74.2,4.8c-24.5-7.8-45.1-24.5-57.7-46.9C0.6,130-3.2,103.7,2.7,78.7c5.9-25,20.9-46.8,42.2-61.2
	S92.1-2.7,117.4,1.2c21.9,3.3,42,13.7,57.4,29.4c4.1,4.2,3.3,10.8-1.3,14.5c-4.6,3.6-11.1,2.8-15.3-1.2c-12-11.6-27.3-19.2-44-21.8
	C94.1,18.9,73.6,23.6,56.7,35C39.8,46.4,27.9,63.7,23.2,83.5c-4.7,19.8-1.7,40.7,8.4,58.4c10,17.7,26.4,31,45.8,37.2
	c19.4,6.2,40.4,4.8,58.9-3.8c18.4-8.6,33-23.9,40.7-42.7c6.4-15.6,7.7-32.7,3.9-48.9C179.5,78,182.2,71.9,187.6,69.9z"/>
<g>
	<path class="st1" d="M62.6,115.3c0.7-1.4,1.5-2.7,2.2-3.9c0.7-1.2,2.1-3.7,4.1-7.3l3.4-6.1c0.2-0.4,0.6-1.1,1.1-2.2
		c-1.1,0-2,0-2.6,0c-2.7,0-5.5,0.1-8.7,0.2c0.1-1.6,0.2-3.5,0.3-5.6h20.5l-0.3,5.7l-4.6,8.4l-2.9,5.5c-0.8,1.5-1.6,3.3-2.6,5.3H62.6
		z"/>
	<path class="st1" d="M87.9,115l-0.1-1.8c0-0.6-0.1-1.1-0.1-1.6c0-0.5-0.1-1.3-0.3-2.4c2.6,0.7,4.8,1.1,6.5,1.1
		c0.9,0,1.8-0.1,2.6-0.4c0.8-0.3,1.4-0.7,1.8-1.2c0.4-0.5,0.6-1.1,0.6-1.7c0-0.9-0.4-1.6-1.3-2c-0.9-0.5-2.2-0.7-4-0.7
		c-0.8,0-1.6,0-2.4,0.1c-0.8,0.1-1.8,0.2-3.2,0.3l1-11.8c0-0.6,0.1-1.4,0.1-2.4c3.2,0,6.3,0,9.2,0c3.7,0,6.8,0,9.3,0
		c-0.1,1.3-0.2,2.3-0.2,3l-0.1,2.5l-2.5-0.1l-1.2,0h-1.9c-0.8,0-1.8,0-2.9,0c-0.4,0-1,0-1.9,0l-0.4,4.2c0.9-0.1,1.5-0.1,2-0.1
		c2,0,3.7,0.3,5.2,0.9c1.5,0.6,2.6,1.4,3.3,2.5c0.7,1.1,1,2.3,1,3.7c0,1.3-0.4,2.6-1.1,3.8c-0.7,1.2-1.7,2.2-2.9,2.9
		c-1.2,0.7-2.7,1.2-4.3,1.6c-1.6,0.3-3.3,0.5-5,0.5c-0.6,0-1.4,0-2.3-0.1c-0.9-0.1-1.6-0.2-2.3-0.3C89.7,115.3,88.9,115.2,87.9,115z
		"/>
	<path class="st1" d="M118.4,90.2c1.3,0,2.4,0.3,3.4,0.8c1,0.5,1.8,1.4,2.3,2.5c0.5,1.1,0.8,2.5,0.8,4c0,1.7-0.3,3.2-0.9,4.6
		s-1.5,2.4-2.6,3c-1.1,0.6-2.4,0.9-3.8,0.9c-1,0-1.9-0.2-2.8-0.5s-1.6-0.8-2.2-1.5c-0.6-0.7-1-1.5-1.3-2.4c-0.3-0.9-0.4-1.9-0.4-2.9
		c0-1.5,0.3-3,0.9-4.5c0.6-1.5,1.5-2.5,2.7-3.2C115.7,90.5,117,90.2,118.4,90.2z M118.2,93.7c-0.5,0-0.9,0.2-1.3,0.7
		c-0.4,0.4-0.7,1.1-0.9,2c-0.2,0.9-0.3,1.8-0.3,2.6c0,1.3,0.2,2.2,0.5,2.8c0.4,0.6,0.8,0.9,1.4,0.9c0.8,0,1.4-0.5,1.8-1.6
		c0.4-1.1,0.7-2.3,0.7-3.7c0-1.2-0.2-2.1-0.6-2.8C119.2,94,118.8,93.7,118.2,93.7z M119,115.3l5.4-9.5l8.4-15.4c0.8,0,1.5,0,2.1,0
		c0.5,0,1.2,0,2.1,0l-4.2,7.3l-7.1,12.9l-2.4,4.6c-0.8,0-1.4,0-2,0C121,115.3,120.2,115.3,119,115.3z M138.5,99.7
		c1.3,0,2.4,0.2,3.3,0.7c1,0.5,1.7,1.3,2.3,2.4c0.6,1.1,0.9,2.5,0.9,4.2c0,1.1-0.1,2.3-0.4,3.4c-0.3,1.1-0.8,2.1-1.4,2.9
		c-0.7,0.8-1.5,1.4-2.4,1.8c-0.9,0.4-2,0.5-3.1,0.5c-1.3,0-2.4-0.2-3.4-0.7c-1-0.5-1.7-1.3-2.3-2.4c-0.6-1.1-0.9-2.5-0.9-4.3
		c0-1.6,0.3-3.1,0.9-4.5s1.5-2.5,2.6-3.1C135.8,100,137.1,99.7,138.5,99.7z M138.3,103.1c-0.5,0-0.9,0.2-1.3,0.7
		c-0.4,0.5-0.6,1.1-0.8,1.9c-0.2,0.8-0.3,1.7-0.3,2.6c0,0.7,0,1.3,0.1,1.7c0.1,0.4,0.2,0.8,0.4,1.1c0.2,0.3,0.4,0.6,0.6,0.8
		c0.3,0.2,0.6,0.3,0.9,0.3c0.2,0,0.4,0,0.6-0.1c0.2-0.1,0.4-0.3,0.6-0.6s0.4-0.7,0.6-1.2s0.3-1.1,0.4-1.6c0.1-0.6,0.1-1.1,0.1-1.8
		c0-1.2-0.2-2.1-0.5-2.8C139.5,103.5,139,103.1,138.3,103.1z"/>
</g>
</svg>
